<svg xmlns="http://www.w3.org/2000/svg" xmlns:xlink="http://www.w3.org/1999/xlink" width="23" height="26" viewBox="0 0 23 26">
  <defs>
    <path id="no-comparison-group-icon-a" d="M18.9914297,3.91429936 L17.7992637,16.8297811 C17.746564,17.40071 17.4536186,17.9280091 16.9854043,18.2958813 C16.5171899,18.6637534 15.911738,18.8423177 15.3021204,18.7917661 L6.10832434,18.0293846 C5.49870671,17.978833 4.93516788,17.703332 4.5414641,17.2639866 C4.1477601,16.8246411 3.95587065,16.2571379 4.00857034,15.686209 L5.20073629,2.77072723 C5.31048311,1.58177103 6.4283543,0.703468852 7.69787893,0.808742239 L16.891675,1.5711237 C17.5012926,1.62167531 18.0648319,1.89717636 18.4585359,2.33652179 C18.8522399,2.77586723 19.0441294,3.34337049 18.9914297,3.91429936 Z"/>
    <path id="no-comparison-group-icon-b" d="M13.799275,10.9704194 L14.9914297,23.8859997 C15.0441289,24.4569329 14.8522413,25.0244405 14.458541,25.4637893 C14.0648407,25.9031381 13.5013067,26.1786412 12.8916948,26.2291932 L3.69798501,26.9915805 C3.0883731,27.0421325 2.48292737,26.8635669 2.01471762,26.4956919 C1.54650764,26.1278169 1.25356501,25.6005138 1.20086581,25.0295806 L0.00871104953,12.1140002 C-0.101034744,10.925035 0.838932616,9.87608096 2.10844534,9.77080677 L11.3021551,9.00841949 C11.911767,8.9578675 12.5172132,9.1364331 12.9854232,9.50430808 C13.4536331,9.87218306 13.7465758,10.3994862 13.799275,10.9704194 Z"/>
    <path id="no-comparison-group-icon-c" d="M22.9836939,9.4448141 L21.3642797,22.1319761 C21.2926935,22.6928121 20.9894222,23.2028231 20.5216913,23.5500295 C20.0539604,23.8972359 19.4597622,24.0534354 18.869715,23.9837437 L9.97106548,22.9327063 C9.38101828,22.8630146 8.84375368,22.5731758 8.4772364,22.1274346 C8.1107189,21.6816935 7.94471993,21.116256 8.01630613,20.55542 L9.63572027,7.86825804 C9.78479814,6.7003202 10.901515,5.8713579 12.1302843,6.01649032 L21.0289339,7.06752775 C21.6189811,7.13721941 22.1562461,7.42705828 22.5227636,7.87279947 C22.8892811,8.31854066 23.0552801,8.8839781 22.9836939,9.4448141 Z"/>
  </defs>
  <g fill="none" fill-rule="evenodd" transform="translate(0 -1)">
    <g transform="rotate(-3 11.5 9.8)">
      <use fill="#1D8DDB" fill-opacity=".1" xlink:href="#no-comparison-group-icon-a"/>
      <path stroke="#1D8DDB" d="M18.4935462,3.86834214 C18.5333351,3.43728364 18.3879551,3.00697427 18.0861703,2.67020412 C17.7784485,2.32680857 17.333667,2.10949134 16.8503551,2.06941344 L7.65655902,1.30703198 C6.65355569,1.22385946 5.78247175,1.90826308 5.69861974,2.81668445 L4.5064538,15.7321662 C4.46666486,16.1632247 4.6120449,16.5935341 4.91382974,16.9303044 C5.22155144,17.2736999 5.66633246,17.491017 6.14964425,17.5310949 L15.3434403,18.2934763 C15.8279191,18.333651 16.3081315,18.1921411 16.676499,17.9027178 C17.0380251,17.6186697 17.2614656,17.2162445 17.3013803,16.7838239 L18.4935462,3.86834214 Z"/>
    </g>
    <use fill="#1D8DDB" fill-opacity=".1" xlink:href="#no-comparison-group-icon-b"/>
    <path stroke="#1D8DDB" d="M13.3013915,11.0163758 C13.2614769,10.5839493 13.0380377,10.1815195 12.6765146,9.897469 C12.308152,9.60804461 11.8279469,9.46653445 11.3434757,9.50670917 L2.14976595,10.2690965 C1.15022418,10.3519833 0.423094683,11.1634217 0.506594575,12.0680438 L1.69874933,24.9836241 C1.73866387,25.4160507 1.96210313,25.8184804 2.32362628,26.102531 C2.6919887,26.3919554 3.17219329,26.5334655 3.6566644,26.4932908 L12.8503741,25.7309036 C13.3336788,25.6908256 13.7784542,25.4735076 14.0861726,25.1301101 C14.3879555,24.7933363 14.5333351,24.363021 14.4935462,23.9319561 L13.3013915,11.0163758 Z"/>
    <g>
      <use fill="#1D8DDB" fill-opacity=".1" xlink:href="#no-comparison-group-icon-c"/>
      <path stroke="#1D8DDB" d="M22.4877179,9.38150676 C22.541729,8.95836166 22.4162296,8.53048413 22.136559,8.19036209 C21.8525565,7.84497168 21.4329288,7.61871993 20.9702855,7.56407621 L12.071636,6.51303878 C11.1099922,6.3994571 10.2453296,7.04131436 10.1316963,7.93156539 L8.51228211,20.6187274 C8.45827105,21.0418725 8.58377044,21.46975 8.86344107,21.8098721 C9.14744344,22.1552625 9.5670707,22.3815141 10.0297138,22.4361578 L18.9283633,23.4871953 C19.392201,23.5419801 19.8587307,23.4194552 20.2236681,23.1485545 C20.5832505,22.881629 20.8141211,22.4931578 20.8683037,22.0686687 L22.4877179,9.38150676 Z"/>
    </g>
  </g>
</svg>
